Patient5_TMGait_0pt45_1_left_12_EMG.mot
version=1
nRows=16
nColumns=33
inDegrees=no
endheader
time	1LAddLong	2LGlutMax	3LGlutMed	4LIliopsoas	5LSemiMemb	6LBicFemLong	7LRecFem	8LTensFascLat	9LVastMed	10LVasLat	11LGasMed	12lGasLat	13LTibAnt	14LPeroneusLong	15LSol	16LTibPost	17RAddLong	18RGlutMax	19RGlutMed	20RIliopsoas	21RSemiMemb	22RBicFemLong	23RRecFem	24RTensFascLat	25RVastMed	26RVasLat	27RGasMed	28RGasLat	29RTibAnt	30RPeroneusLong	31RSol	32RTibPost
19.73	0.092773	-0.009613	-0.033417	0.011597	-0.06897	0.021515	0.008545	0.041046	-0.023651	-0.006714	-0.027313	-0.10056	-0.00473	0.009613	0.15808	0.12924	0.006104	-0.001678	-0.006256	0.056152	-0.025024	-0.005798	-0.000916	0.17349	-0.005951	-0.003967	0.002899	-0.000458	-0.028229	-0.0177	-0.018158	-0.001984
19.731	0.089874	-0.011749	0.009155	-0.000153	-0.079651	-0.016022	0.018921	-0.021667	-0.00885	-0.008545	-0.090942	-0.059814	0.002899	0.045166	0.059052	0.087738	0.003052	-0.00412	-0.035553	-0.16769	-0.011597	-0.00885	0.004425	0.13657	-0.00412	-0.011444	0.003662	-0.010529	-0.023956	-0.013275	-0.029144	-0.002747
19.732	0.068817	0.001373	0.027466	-0.022888	-0.06485	-0.075226	0.02121	-0.042572	0.001984	-0.008087	-0.13992	-0.090485	0.017242	0.024872	0.013123	0.083923	0.001526	-0.001831	-0.059662	-0.10666	-0.001221	-0.008698	0.008545	0.12543	-0.00412	-0.008392	0.003052	-0.013885	-0.022736	-0.032196	-0.032806	0.000305
19.733	0.022736	0.007629	0.016937	-0.017395	-0.077057	-0.010834	0.040741	-0.12192	0.013733	0.001068	-0.076447	-0.12649	0.021515	0.015717	-0.019226	0.051727	0.003815	-0.003357	-0.051422	0.10361	0.008545	-0.005035	0.007019	0.09491	-0.006256	-0.012207	0.004272	-0.028839	-0.001678	-0.033417	-0.022278	-0.006409
19.734	0.045471	0.012817	-0.068207	-0.006866	-0.041962	0.019226	0.041046	-0.070953	0.014801	0.014496	-0.06546	-0.071869	0.01297	-0.006714	-0.023804	0.030365	0.002441	-0.003204	0.014038	-0.037537	0.021973	0.002899	0.014648	0.063629	-0.003052	-0.004425	0.002289	-0.04837	0.076752	-0.016937	-0.011444	-0.000763
19.735	0.047302	0.012665	-0.11566	-0.003967	-0.036163	0.013733	0.036163	-0.031433	0.014343	0.015869	-0.036774	0.014954	0.00824	-0.02594	-0.007782	0.077515	0	-0.003815	0.024719	-0.010223	0.072021	-0.005188	0.015411	0.033264	-0.00473	-0.007172	0.001678	-0.024261	0.073242	0.001984	0.022278	-0.001831
19.736	0.034027	0.01297	-0.13306	-0.002289	-0.038452	0.031433	0.025177	-0.14221	0.017548	0.013733	-0.011902	-0.025482	0.016174	-0.031281	-0.002441	0.03418	0.003204	-0.008392	0.038757	-0.027008	0.069275	0.003052	0.018768	0.042725	0.002747	-0.009613	0.002136	-0.03418	0.041962	0.006409	0.024567	-0.002136
19.737	0.041809	0.00946	-0.057068	0.009308	-0.037689	0.074768	0.009766	-0.18738	0.019226	0.027924	0.1384	-0.049286	0.022736	-0.059204	0.005646	-0.066986	0.003052	-0.009003	0.047913	-0.044861	0.075073	0.000305	0.01236	0.03418	-0.002289	-0.001221	0.004425	-0.044403	0.013428	0.024414	0.009308	-0.001526
19.738	0.015869	0.011444	0.057678	-0.001068	-0.031433	0.083466	0.00473	0.068817	0.027924	-0.014801	0.099335	-0.016174	-0.004883	-0.045624	0.011444	0.031433	0.00351	-0.006561	0.062561	-0.095215	0.063782	-0.007782	0.008392	0.019531	0.000305	-0.009003	-0.006561	-0.001984	0.0177	0.022736	0.00351	0.003052
19.739	-0.019379	0.009613	0.084839	0	-0.016174	0.003967	-0.010071	0.083008	0.022736	-0.009613	0.019226	-0.037079	-0.022125	-0.006561	0.013428	-0.083923	0.054016	-0.009308	0.046539	-0.064087	0.049438	-0.004883	0.000763	-0.010834	0.005646	-0.013428	-0.00885	0.014648	0.011292	0.025482	-0.000916	0.000153
19.74	-0.029907	0.012512	-0.006714	0.000458	-0.006409	-0.051422	-0.019836	0.013123	0.012207	0.019684	-0.002594	-0.019989	-0.004883	0.031281	0.031891	-0.059662	-0.001984	-0.007935	0.04425	0.069427	0.033722	-0.000916	-0.013733	-0.028534	-0.000305	-0.012665	-0.002136	0.029449	0.013123	0.024719	-0.01358	-0.002136
19.741	-0.008087	0.001526	0.05661	-0.013885	0.006866	-0.099945	-0.026398	0.089722	-0.018768	0.011749	0.003815	-0.009155	0.002136	0.039368	0.009613	-0.14542	-0.03418	-0.005341	0.031738	0.033875	0.020599	-0.005493	-0.009766	-0.036163	-0.014801	-0.002136	-0.000763	0.018158	0.021667	0.027313	-0.01236	-0.005341
19.742	-0.006104	0.005951	0.061188	-0.015106	0.02533	-0.081024	-0.019684	0.10727	-0.034332	0.015411	0.015106	0.011292	0.023193	0.082245	-0.020142	-0.030975	-0.019073	-0.004578	0.042267	-0.11887	0.006714	-0.010681	-0.007019	-0.044861	-0.006256	0.001526	-0.002441	0.005341	0.029144	0.018463	-0.033264	-0.004578
19.743	-0.033417	0.006866	-0.11276	0.013123	0.010529	-0.12405	-0.017853	-0.15381	-0.041504	0.014954	0.007782	0.018768	0.019836	0.14832	0.005798	0.06134	-0.009308	-0.002441	0.074005	-0.16342	-0.009766	0.002594	0.000153	-0.064545	-0.012665	-0.001373	0.000305	-0.025635	0.036011	0.011444	-0.027008	0.000763
19.744	-0.059967	0.004425	-0.16922	0.010834	0.022736	-0.12161	-0.01297	-0.14954	-0.03479	-0.019836	0.005493	0.085907	0.021057	0.26596	0.020294	-0.054779	-0.001831	-0.005188	0.066681	-0.090179	-0.006714	0.000763	0.001831	-0.067139	-0.013885	-0.007477	0.001373	-0.027924	0.023651	0.006714	-0.007935	-0.000763
19.745	-0.076752	-0.000916	-0.11276	0.00061	0.016327	-0.046082	-0.010986	-0.027771	-0.017853	-0.052948	0.015411	0.10773	0.001984	0.23666	-0.000916	0.021667	-0.002441	-0.002136	0.045319	-0.073853	-0.009003	0.002747	-0.00473	-0.041504	-0.005493	-0.010986	-0.003052	-0.023651	0.006714	0.001526	0.023499	-0.002441
